<?xml version="1.0" encoding="utf-8"?>
<!-- Generator: Adobe Illustrator 24.2.0, SVG Export Plug-In . SVG Version: 6.00 Build 0)  -->
<svg version="1.1" id="Layer_1" xmlns="http://www.w3.org/2000/svg" xmlns:xlink="http://www.w3.org/1999/xlink" x="0px" y="0px"
	 viewBox="0 0 1123.1 211.7" style="enable-background:new 0 0 1123.1 211.7;" xml:space="preserve">
<style type="text/css">
	.st0{fill:#C9284F;}
	.st1{fill:#FFFFFF;}
</style>
<g>
	<polygon class="st0" points="1123.1,0 0,0 0,211.7 1123.1,211.7 1017.2,105.9 	"/>
	<g>
		<path class="st1" d="M157,114.5l7.4-39.3h0.3l7.3,39.3H157z M141.9,147h9l4.7-24.7h18.3l4.8,24.7h9.6l-16.5-82.8H159L141.9,147z"
			/>
		<path class="st1" d="M214.3,148.1c11.3,0,18.8-7.2,18.8-17.8v-8.6h-8.6v8.1c0,5.5-3.5,9.8-10,9.8c-6.6,0-10.6-3.7-10.6-11.1V82.3
			c0-6.2,2.9-11,10.4-11c6.9,0,10.3,4.1,10.3,9.9v8h8.6v-9.4c0-9.7-7.2-16.8-18.8-16.8c-12.1,0-20.1,7.4-20.1,18.9v47.5
			C194.2,141.5,202.3,148.1,214.3,148.1z"/>
		<path class="st1" d="M356.2,147h8.5V83.6h0.3l22.5,63.4h8.8V64.4h-8.3v58.4h-0.2l-21.2-58.4h-10.3V147z M326.6,139.5
			c-7.1,0-10.5-5-10.5-11V82.1c0-5.9,3.4-10.6,10.3-10.6c6.9,0,10.7,4.2,10.7,10.3v46.8C337.2,134.4,333.9,139.5,326.6,139.5z
			 M326.4,148.1c11.5,0,20.3-6.8,20.3-20.2V81.7c0-12.7-8.7-18.6-19.9-18.6c-11.7,0-20.4,6.9-20.4,19.6v45.8
			C306.3,141.6,314.4,148.1,326.4,148.1z M287.3,147h9.6V64.4h-9.6V147z M254.1,147h9.4V72.5h15.7v-8.1h-41v8.1H254L254.1,147
			L254.1,147z"/>
		<polygon class="st1" points="426.3,147 435.7,147 435.7,108.3 454.1,108.3 454.1,99.9 435.7,99.9 435.7,72.5 458.9,72.5 
			458.9,64.4 426.3,64.4 		"/>
		<path class="st1" d="M523.9,103.5v-31h8c8.1,0,10.5,7.6,10.5,15.6c0,9.9-3.4,15.4-10.1,15.4H523.9z M514.3,147h9.6v-36h8.3l11,36
			h9.7l-11.9-38.2c6.8-2.2,11-9.7,11-21.4c0-14.6-6.5-22.9-19.6-22.9h-18.2L514.3,147L514.3,147z M484.8,139.5
			c-7.1,0-10.5-5-10.5-11V82.1c0-5.9,3.4-10.6,10.3-10.6c6.9,0,10.7,4.2,10.7,10.3v46.8C495.3,134.4,492,139.5,484.8,139.5z
			 M484.6,148.1c11.5,0,20.3-6.8,20.3-20.2V81.7c0-12.7-8.7-18.6-19.9-18.6c-11.7,0-20.4,6.9-20.4,19.6v45.8
			C464.5,141.6,472.5,148.1,484.6,148.1z"/>
		<polygon class="st1" points="580.8,147 590.3,147 590.3,109.1 610.8,109.1 610.8,147 620.4,147 620.4,64.4 610.8,64.4 
			610.8,100.3 590.3,100.3 590.3,64.4 580.8,64.4 		"/>
		<path class="st1" d="M642.3,114.5l7.4-39.3h0.3l7.3,39.3H642.3z M627.1,147h9l4.7-24.7h18.3l4.8,24.7h9.6L657,64.2h-12.7
			L627.1,147z"/>
		<path class="st1" d="M736,105.6v-33h7.7c7.9,0,10.5,6.6,10.5,15.8c0,11.1-3.5,17.1-11.1,17.1L736,105.6L736,105.6z M726.5,147h9.6
			v-33.4h8.1c13.3,0,19.5-9.9,19.5-25.3c0-14.2-5.4-24-18.6-24h-18.5L726.5,147L726.5,147z M689.9,105.6v-33h7.7
			c7.9,0,10.5,6.6,10.5,15.8c0,11.1-3.5,17.1-11.1,17.1L689.9,105.6L689.9,105.6z M680.3,147h9.6v-33.4h8.1
			c13.3,0,19.5-9.9,19.5-25.3c0-14.2-5.4-24-18.6-24h-18.6V147z"/>
		<rect x="772.7" y="64.4" class="st1" width="9.6" height="82.6"/>
		<path class="st1" d="M948.7,148.1c11.7,0,18.2-8.4,18.2-19.9c0-8.7-3.6-15.6-10.1-22.8l-8.6-9.7c-4.3-4.9-8.1-9.6-8.1-14.8
			c0-6.6,3.1-9.9,8.5-9.9c5.6,0,8.3,3.8,9.2,11.8l8.6-0.2c-0.8-14.4-8-19.3-17.1-19.3c-11.9,0-17.9,8.3-17.9,18.5
			c0,7.6,3.8,14.1,9.8,20.5l9.7,11c4.5,5,7.2,10.4,7.2,15.6c0,5.6-2.2,11.5-9.1,11.5c-6.6,0-9.3-5.7-9.9-13.2l-9.1,0.3
			C930.6,140.7,937.5,148.1,948.7,148.1z M904.2,148.1c11.7,0,18.2-8.4,18.2-19.9c0-8.7-3.6-15.6-10.1-22.8l-8.6-9.7
			c-4.3-4.9-8.1-9.6-8.1-14.8c0-6.6,3.1-9.9,8.5-9.9c5.6,0,8.3,3.8,9.2,11.8l8.6-0.2c-0.8-14.4-8-19.3-17.1-19.3
			c-11.9,0-17.9,8.3-17.9,18.5c0,7.6,3.8,14.1,9.8,20.5l9.7,11c4.5,5,7.2,10.4,7.2,15.6c0,5.6-2.2,11.5-9.1,11.5
			c-6.6,0-9.3-5.7-9.9-13.2l-9.1,0.3C886.2,140.7,892.9,148.1,904.2,148.1z M845.9,147h32.9v-8.4h-23.4v-30.7H874v-8.3h-18.6V72.5
			h23.3v-8.1H846L845.9,147L845.9,147z M795.4,147h8.5V83.6h0.3l22.5,63.4h8.8V64.4h-8.4v58.4h-0.2l-21.2-58.4h-10.3L795.4,147
			L795.4,147z"/>
	</g>
</g>
</svg>
